<svg xmlns="http://www.w3.org/2000/svg" viewBox="0 0 980 860" width="980" height="860">
<rect width="980" height="860" fill="#fbfaf6"/>
<defs><marker id="ar¹" viewBox="0 0 10 10" refX="8" refY="5" markerWidth="7" markerHeight="7" orient="auto-start-reverse"><path d="M0 0 L10 5 L0 10 z" fill="#cf6a3f"/></marker><marker id="ar²" viewBox="0 0 10 10" refX="8" refY="5" markerWidth="7" markerHeight="7" orient="auto-start-reverse"><path d="M0 0 L10 5 L0 10 z" fill="#3f86a6"/></marker><marker id="ar³" viewBox="0 0 10 10" refX="8" refY="5" markerWidth="7" markerHeight="7" orient="auto-start-reverse"><path d="M0 0 L10 5 L0 10 z" fill="#8869b4"/></marker><marker id="arF" viewBox="0 0 10 10" refX="8" refY="5" markerWidth="7" markerHeight="7" orient="auto-start-reverse"><path d="M0 0 L10 5 L0 10 z" fill="#d6a022"/></marker></defs>
<text x="40" y="48" font-family="ui-sans-serif,-apple-system,'Segoe UI',Inter,system-ui,sans-serif" font-size="18" font-weight="650" fill="#2c2823">Coordinate cell — four variants</text>
<text x="40" y="70" font-family="ui-sans-serif,-apple-system,'Segoe UI',Inter,system-ui,sans-serif" font-size="12" fill="#9b9485">pick one · it tiles for above / below / parallel / the merge tree</text>
<text x="250.0" y="99.1" text-anchor="middle" font-family="ui-monospace,'SF Mono',Menlo,Consolas,monospace" font-size="11.5" font-weight="700" fill="#2c2823" letter-spacing="0.5">MINIMAL — axes only</text>
<line x1="250.0" y1="270.0" x2="359.7" y2="333.4" stroke="#cf6a3f" stroke-width="2.3" stroke-linecap="round" marker-end="url(#ar¹)"/><text x="370.7" y="337.4" text-anchor="start" font-family="ui-monospace,'SF Mono',Menlo,Consolas,monospace" font-size="12.5" font-weight="700" fill="#cf6a3f">X¹</text><line x1="250.0" y1="270.0" x2="140.3" y2="333.4" stroke="#3f86a6" stroke-width="2.3" stroke-linecap="round" marker-end="url(#ar²)"/><text x="129.3" y="337.4" text-anchor="end" font-family="ui-monospace,'SF Mono',Menlo,Consolas,monospace" font-size="12.5" font-weight="700" fill="#3f86a6">X²</text><line x1="250.0" y1="270.0" x2="250.0" y2="143.3" stroke="#8869b4" stroke-width="2.3" stroke-linecap="round" marker-end="url(#ar³)"/><text x="250.0" y="137.3" text-anchor="middle" font-family="ui-monospace,'SF Mono',Menlo,Consolas,monospace" font-size="12.5" font-weight="700" fill="#8869b4">X³</text><line x1="363.3" y1="237.4" x2="449.7" y2="237.4" stroke="#d6a022" stroke-width="3.0" stroke-linecap="round" marker-end="url(#arF)"/><text x="406.5" y="228.4" text-anchor="middle" font-family="ui-monospace,'SF Mono',Menlo,Consolas,monospace" font-size="11" font-weight="700" fill="#d6a022">FORWARD</text><circle cx="250.0" cy="270.0" r="3.5" fill="#2c2823"/>
<text x="730.0" y="99.1" text-anchor="middle" font-family="ui-monospace,'SF Mono',Menlo,Consolas,monospace" font-size="11.5" font-weight="700" fill="#2c2823" letter-spacing="0.5">WIRE — cube outline</text>
<polygon points="730.0,174.0 813.1,222.0 813.1,318.0 730.0,366.0 646.9,318.0 646.9,222.0" fill="none" stroke="#d4cebf" stroke-width="1.4"/><line x1="730.0" y1="270.0" x2="730.0" y2="174.0" stroke="#d4cebf" stroke-width="1.0" stroke-linecap="round"/><line x1="730.0" y1="270.0" x2="813.1" y2="318.0" stroke="#d4cebf" stroke-width="1.0" stroke-linecap="round"/><line x1="730.0" y1="270.0" x2="646.9" y2="318.0" stroke="#d4cebf" stroke-width="1.0" stroke-linecap="round"/><line x1="730.0" y1="270.0" x2="839.7" y2="333.4" stroke="#cf6a3f" stroke-width="2.3" stroke-linecap="round" marker-end="url(#ar¹)"/><text x="850.7" y="337.4" text-anchor="start" font-family="ui-monospace,'SF Mono',Menlo,Consolas,monospace" font-size="12.5" font-weight="700" fill="#cf6a3f">X¹</text><line x1="730.0" y1="270.0" x2="620.3" y2="333.4" stroke="#3f86a6" stroke-width="2.3" stroke-linecap="round" marker-end="url(#ar²)"/><text x="609.3" y="337.4" text-anchor="end" font-family="ui-monospace,'SF Mono',Menlo,Consolas,monospace" font-size="12.5" font-weight="700" fill="#3f86a6">X²</text><line x1="730.0" y1="270.0" x2="730.0" y2="143.3" stroke="#8869b4" stroke-width="2.3" stroke-linecap="round" marker-end="url(#ar³)"/><text x="730.0" y="137.3" text-anchor="middle" font-family="ui-monospace,'SF Mono',Menlo,Consolas,monospace" font-size="12.5" font-weight="700" fill="#8869b4">X³</text><line x1="843.3" y1="237.4" x2="929.7" y2="237.4" stroke="#d6a022" stroke-width="3.0" stroke-linecap="round" marker-end="url(#arF)"/><text x="886.5" y="228.4" text-anchor="middle" font-family="ui-monospace,'SF Mono',Menlo,Consolas,monospace" font-size="11" font-weight="700" fill="#d6a022">FORWARD</text><circle cx="730.0" cy="270.0" r="3.5" fill="#2c2823"/>
<text x="250.0" y="469.1" text-anchor="middle" font-family="ui-monospace,'SF Mono',Menlo,Consolas,monospace" font-size="11.5" font-weight="700" fill="#2c2823" letter-spacing="0.5">SOLID — filled faces</text>
<polygon points="250.0,544.0 333.1,592.0 250.0,640.0 166.9,592.0" fill="#f2eee4" stroke="#d4cebf" stroke-width="1" stroke-linejoin="round"/><polygon points="166.9,688.0 250.0,736.0 250.0,640.0 166.9,592.0" fill="#e7e0d1" stroke="#d4cebf" stroke-width="1" stroke-linejoin="round"/><polygon points="333.1,688.0 250.0,736.0 250.0,640.0 333.1,592.0" fill="#d6cebb" stroke="#d4cebf" stroke-width="1" stroke-linejoin="round"/><line x1="250.0" y1="640.0" x2="359.7" y2="703.4" stroke="#cf6a3f" stroke-width="2.3" stroke-linecap="round" marker-end="url(#ar¹)"/><text x="370.7" y="707.4" text-anchor="start" font-family="ui-monospace,'SF Mono',Menlo,Consolas,monospace" font-size="12.5" font-weight="700" fill="#cf6a3f">X¹</text><line x1="250.0" y1="640.0" x2="140.3" y2="703.4" stroke="#3f86a6" stroke-width="2.3" stroke-linecap="round" marker-end="url(#ar²)"/><text x="129.3" y="707.4" text-anchor="end" font-family="ui-monospace,'SF Mono',Menlo,Consolas,monospace" font-size="12.5" font-weight="700" fill="#3f86a6">X²</text><line x1="250.0" y1="640.0" x2="250.0" y2="513.3" stroke="#8869b4" stroke-width="2.3" stroke-linecap="round" marker-end="url(#ar³)"/><text x="250.0" y="507.3" text-anchor="middle" font-family="ui-monospace,'SF Mono',Menlo,Consolas,monospace" font-size="12.5" font-weight="700" fill="#8869b4">X³</text><line x1="363.3" y1="607.4" x2="449.7" y2="607.4" stroke="#d6a022" stroke-width="3.0" stroke-linecap="round" marker-end="url(#arF)"/><text x="406.5" y="598.4" text-anchor="middle" font-family="ui-monospace,'SF Mono',Menlo,Consolas,monospace" font-size="11" font-weight="700" fill="#d6a022">FORWARD</text><circle cx="250.0" cy="640.0" r="3.5" fill="#2c2823"/>
<text x="730.0" y="469.1" text-anchor="middle" font-family="ui-monospace,'SF Mono',Menlo,Consolas,monospace" font-size="11.5" font-weight="700" fill="#2c2823" letter-spacing="0.5">SLOTS — room to grow</text>
<line x1="730.0" y1="640.0" x2="839.7" y2="703.4" stroke="#cf6a3f" stroke-width="2.3" stroke-linecap="round" marker-end="url(#ar¹)"/><text x="850.7" y="707.4" text-anchor="start" font-family="ui-monospace,'SF Mono',Menlo,Consolas,monospace" font-size="12.5" font-weight="700" fill="#cf6a3f">X¹</text><line x1="730.0" y1="640.0" x2="620.3" y2="703.4" stroke="#3f86a6" stroke-width="2.3" stroke-linecap="round" marker-end="url(#ar²)"/><text x="609.3" y="707.4" text-anchor="end" font-family="ui-monospace,'SF Mono',Menlo,Consolas,monospace" font-size="12.5" font-weight="700" fill="#3f86a6">X²</text><line x1="730.0" y1="640.0" x2="730.0" y2="513.3" stroke="#8869b4" stroke-width="2.3" stroke-linecap="round" marker-end="url(#ar³)"/><text x="730.0" y="507.3" text-anchor="middle" font-family="ui-monospace,'SF Mono',Menlo,Consolas,monospace" font-size="12.5" font-weight="700" fill="#8869b4">X³</text><line x1="843.3" y1="607.4" x2="929.7" y2="607.4" stroke="#d6a022" stroke-width="3.0" stroke-linecap="round" marker-end="url(#arF)"/><text x="886.5" y="598.4" text-anchor="middle" font-family="ui-monospace,'SF Mono',Menlo,Consolas,monospace" font-size="11" font-weight="700" fill="#d6a022">FORWARD</text><line x1="730.0" y1="640.0" x2="775.4" y2="553.3" stroke="#b3ab9a" stroke-width="1.3" stroke-linecap="round" stroke-dasharray="2 6"/><rect x="771.4" y="549.3" width="8" height="8" transform="rotate(45 775.4 553.3)" fill="none" stroke="#b3ab9a" stroke-width="1.3"/><line x1="730.0" y1="640.0" x2="684.6" y2="553.3" stroke="#b3ab9a" stroke-width="1.3" stroke-linecap="round" stroke-dasharray="2 6"/><rect x="680.6" y="549.3" width="8" height="8" transform="rotate(45 684.6 553.3)" fill="none" stroke="#b3ab9a" stroke-width="1.3"/><text x="730.0" y="496.0" text-anchor="middle" font-family="ui-sans-serif,-apple-system,'Segoe UI',Inter,system-ui,sans-serif" font-size="9.5" fill="#b3ab9a">open slots</text><circle cx="730.0" cy="640.0" r="3.5" fill="#2c2823"/>
</svg>