<svg xmlns="http://www.w3.org/2000/svg" viewBox="0 0 1540 1340" width="1540" height="1340">
<rect width="1540" height="1340" fill="#fbfaf6"/>
<defs><marker id="mx" viewBox="0 0 10 10" refX="8" refY="5" markerWidth="6.5" markerHeight="6.5" orient="auto-start-reverse"><path d="M0 0 L10 5 L0 10 z" fill="#cf6a3f"/></marker><marker id="my" viewBox="0 0 10 10" refX="8" refY="5" markerWidth="6.5" markerHeight="6.5" orient="auto-start-reverse"><path d="M0 0 L10 5 L0 10 z" fill="#3f86a6"/></marker><marker id="mz" viewBox="0 0 10 10" refX="8" refY="5" markerWidth="6.5" markerHeight="6.5" orient="auto-start-reverse"><path d="M0 0 L10 5 L0 10 z" fill="#8869b4"/></marker></defs>
<text x="44" y="52" font-family="ui-sans-serif,-apple-system,'Segoe UI',Inter,system-ui,sans-serif" font-size="19" font-weight="650" fill="#2c2823">Coordinate cube — exploded · planes + full ± axes · 26 cubies + void</text>
<text x="44" y="74" font-family="ui-sans-serif,-apple-system,'Segoe UI',Inter,system-ui,sans-serif" font-size="12.5" fill="#9b9485">three principal planes through the centre · each cubie a 3D cube with room to label · the void recurses</text>
<polygon points="770.0,866.1 1363.4,660.0 770.0,453.9 176.6,660.0" fill="#d6a022" fill-opacity="0.05" stroke="#d6a022" stroke-opacity="0.30" stroke-width="1.1" stroke-dasharray="3 4"/>
<polygon points="1066.7,450.7 1066.7,1075.4 473.3,869.3 473.3,244.6" fill="#cf6a3f" fill-opacity="0.05" stroke="#cf6a3f" stroke-opacity="0.30" stroke-width="1.1" stroke-dasharray="3 4"/>
<polygon points="473.3,450.7 473.3,1075.4 1066.7,869.3 1066.7,244.6" fill="#3f86a6" fill-opacity="0.05" stroke="#3f86a6" stroke-opacity="0.30" stroke-width="1.1" stroke-dasharray="3 4"/>
<line x1="283.2" y1="490.9" x2="1256.8" y2="829.1" stroke="#cf6a3f" stroke-width="1.5" stroke-linecap="round" opacity="0.4"/>
<line x1="770.0" y1="660.0" x2="1256.8" y2="829.1" stroke="#cf6a3f" stroke-width="2.2" stroke-linecap="round" marker-end="url(#mx)"/>
<text x="1270.8" y="829.1" text-anchor="start" font-family="ui-monospace,'SF Mono',Menlo,Consolas,monospace" font-size="13" font-weight="700" fill="#cf6a3f">+X¹</text>
<text x="269.2" y="490.9" text-anchor="start" font-family="ui-monospace,'SF Mono',Menlo,Consolas,monospace" font-size="11.5" font-weight="600" fill="#cf6a3f" opacity="0.6">−X¹</text>
<line x1="1256.8" y1="490.9" x2="283.2" y2="829.1" stroke="#3f86a6" stroke-width="1.5" stroke-linecap="round" opacity="0.4"/>
<line x1="770.0" y1="660.0" x2="283.2" y2="829.1" stroke="#3f86a6" stroke-width="2.2" stroke-linecap="round" marker-end="url(#my)"/>
<text x="269.2" y="829.1" text-anchor="end" font-family="ui-monospace,'SF Mono',Menlo,Consolas,monospace" font-size="13" font-weight="700" fill="#3f86a6">+X²</text>
<text x="1270.8" y="490.9" text-anchor="end" font-family="ui-monospace,'SF Mono',Menlo,Consolas,monospace" font-size="11.5" font-weight="600" fill="#3f86a6" opacity="0.6">−X²</text>
<line x1="770.0" y1="1172.4" x2="770.0" y2="147.6" stroke="#8869b4" stroke-width="1.5" stroke-linecap="round" opacity="0.4"/>
<line x1="770.0" y1="660.0" x2="770.0" y2="147.6" stroke="#8869b4" stroke-width="2.2" stroke-linecap="round" marker-end="url(#mz)"/>
<text x="770.0" y="147.6" text-anchor="middle" font-family="ui-monospace,'SF Mono',Menlo,Consolas,monospace" font-size="13" font-weight="700" fill="#8869b4">+X³</text>
<text x="770.0" y="1172.4" text-anchor="middle" font-family="ui-monospace,'SF Mono',Menlo,Consolas,monospace" font-size="11.5" font-weight="600" fill="#8869b4" opacity="0.6">−X³</text>
<polygon points="770.0,322.7 849.8,295.0 770.0,267.2 690.2,295.0" fill="none" stroke="#8869b4" stroke-width="1.3" stroke-opacity="0.5"/><polygon points="770.0,242.7 849.8,215.0 770.0,187.2 690.2,215.0" fill="#8869b4" fill-opacity="0.92" stroke="#ffffff" stroke-width="1.4" stroke-linejoin="round"/>
<text x="770.0" y="333.0" text-anchor="middle" font-family="ui-monospace,'SF Mono',Menlo,Consolas,monospace" font-size="10" fill="#7c766a">－－＋</text>
<polygon points="538.2,403.2 618.0,375.5 538.2,347.8 458.4,375.5" fill="none" stroke="#8869b4" stroke-width="1.3" stroke-opacity="0.5"/><polygon points="538.2,323.2 618.0,295.5 538.2,267.8 458.4,295.5" fill="#8869b4" fill-opacity="0.92" stroke="#ffffff" stroke-width="1.4" stroke-linejoin="round"/>
<text x="538.2" y="413.5" text-anchor="middle" font-family="ui-monospace,'SF Mono',Menlo,Consolas,monospace" font-size="10" fill="#7c766a">－0＋</text>
<polygon points="1001.8,403.2 1081.6,375.5 1001.8,347.8 922.0,375.5" fill="none" stroke="#8869b4" stroke-width="1.3" stroke-opacity="0.5"/><polygon points="1001.8,323.2 1081.6,295.5 1001.8,267.8 922.0,295.5" fill="#8869b4" fill-opacity="0.92" stroke="#ffffff" stroke-width="1.4" stroke-linejoin="round"/>
<text x="1001.8" y="413.5" text-anchor="middle" font-family="ui-monospace,'SF Mono',Menlo,Consolas,monospace" font-size="10" fill="#7c766a">0－＋</text>
<polygon points="306.4,483.7 386.2,456.0 306.4,428.3 226.6,456.0" fill="none" stroke="#8869b4" stroke-width="1.3" stroke-opacity="0.5"/><polygon points="306.4,403.7 386.2,376.0 306.4,348.3 226.6,376.0" fill="#8869b4" fill-opacity="0.92" stroke="#ffffff" stroke-width="1.4" stroke-linejoin="round"/>
<text x="306.4" y="494.0" text-anchor="middle" font-family="ui-monospace,'SF Mono',Menlo,Consolas,monospace" font-size="10" fill="#7c766a">－＋＋</text>
<polygon points="770.0,483.7 849.8,456.0 770.0,428.3 690.2,456.0" fill="none" stroke="#8869b4" stroke-width="1.3" stroke-opacity="0.5"/><polygon points="770.0,403.7 849.8,376.0 770.0,348.3 690.2,376.0" fill="#8869b4" fill-opacity="0.92" stroke="#ffffff" stroke-width="1.4" stroke-linejoin="round"/>
<text x="770.0" y="494.0" text-anchor="middle" font-family="ui-monospace,'SF Mono',Menlo,Consolas,monospace" font-size="10" fill="#7c766a">00＋</text>
<polygon points="1233.6,483.7 1313.4,456.0 1233.6,428.3 1153.8,456.0" fill="none" stroke="#8869b4" stroke-width="1.3" stroke-opacity="0.5"/><polygon points="1233.6,403.7 1313.4,376.0 1233.6,348.3 1153.8,376.0" fill="#8869b4" fill-opacity="0.92" stroke="#ffffff" stroke-width="1.4" stroke-linejoin="round"/>
<text x="1233.6" y="494.0" text-anchor="middle" font-family="ui-monospace,'SF Mono',Menlo,Consolas,monospace" font-size="10" fill="#7c766a">＋－＋</text>
<polygon points="538.2,564.2 618.0,536.5 538.2,508.8 458.4,536.5" fill="none" stroke="#8869b4" stroke-width="1.3" stroke-opacity="0.5"/><polygon points="538.2,484.2 618.0,456.5 538.2,428.8 458.4,456.5" fill="#8869b4" fill-opacity="0.92" stroke="#ffffff" stroke-width="1.4" stroke-linejoin="round"/>
<text x="538.2" y="574.5" text-anchor="middle" font-family="ui-monospace,'SF Mono',Menlo,Consolas,monospace" font-size="10" fill="#7c766a">0＋＋</text>
<polygon points="1001.8,564.2 1081.6,536.5 1001.8,508.8 922.0,536.5" fill="none" stroke="#8869b4" stroke-width="1.3" stroke-opacity="0.5"/><polygon points="1001.8,484.2 1081.6,456.5 1001.8,428.8 922.0,456.5" fill="#8869b4" fill-opacity="0.92" stroke="#ffffff" stroke-width="1.4" stroke-linejoin="round"/>
<text x="1001.8" y="574.5" text-anchor="middle" font-family="ui-monospace,'SF Mono',Menlo,Consolas,monospace" font-size="10" fill="#7c766a">＋0＋</text>
<polygon points="768.1,484.0 768.1,568.0 847.9,540.3 847.9,456.3" fill="none" stroke="#cf6a3f" stroke-width="1.3" stroke-opacity="0.5"/><polygon points="692.1,457.6 692.1,541.6 771.9,513.9 771.9,429.9" fill="#cf6a3f" fill-opacity="0.92" stroke="#ffffff" stroke-width="1.4" stroke-linejoin="round"/>
<text x="770.0" y="577.0" text-anchor="middle" font-family="ui-monospace,'SF Mono',Menlo,Consolas,monospace" font-size="10" fill="#7c766a">－－0</text>
<polygon points="770.0,644.8 849.8,617.0 770.0,589.3 690.2,617.0" fill="none" stroke="#8869b4" stroke-width="1.3" stroke-opacity="0.5"/><polygon points="770.0,564.8 849.8,537.0 770.0,509.3 690.2,537.0" fill="#8869b4" fill-opacity="0.92" stroke="#ffffff" stroke-width="1.4" stroke-linejoin="round"/>
<text x="770.0" y="655.0" text-anchor="middle" font-family="ui-monospace,'SF Mono',Menlo,Consolas,monospace" font-size="10" fill="#7c766a">＋＋＋</text>
<polygon points="536.3,564.5 536.3,648.5 616.1,620.8 616.1,536.8" fill="none" stroke="#cf6a3f" stroke-width="1.3" stroke-opacity="0.5"/><polygon points="460.3,538.1 460.3,622.1 540.1,594.4 540.1,510.4" fill="#cf6a3f" fill-opacity="0.92" stroke="#ffffff" stroke-width="1.4" stroke-linejoin="round"/>
<text x="538.2" y="657.5" text-anchor="middle" font-family="ui-monospace,'SF Mono',Menlo,Consolas,monospace" font-size="10" fill="#7c766a">－00</text>
<polygon points="1003.7,564.5 1003.7,648.5 923.9,620.8 923.9,536.8" fill="none" stroke="#3f86a6" stroke-width="1.3" stroke-opacity="0.5"/><polygon points="1079.7,538.1 1079.7,622.1 999.9,594.4 999.9,510.4" fill="#3f86a6" fill-opacity="0.92" stroke="#ffffff" stroke-width="1.4" stroke-linejoin="round"/>
<text x="1001.8" y="657.5" text-anchor="middle" font-family="ui-monospace,'SF Mono',Menlo,Consolas,monospace" font-size="10" fill="#7c766a">0－0</text>
<polygon points="304.5,645.1 304.5,729.1 384.3,701.3 384.3,617.3" fill="none" stroke="#cf6a3f" stroke-width="1.3" stroke-opacity="0.5"/><polygon points="228.5,618.7 228.5,702.7 308.3,674.9 308.3,590.9" fill="#cf6a3f" fill-opacity="0.92" stroke="#ffffff" stroke-width="1.4" stroke-linejoin="round"/>
<text x="306.4" y="738.0" text-anchor="middle" font-family="ui-monospace,'SF Mono',Menlo,Consolas,monospace" font-size="10" fill="#7c766a">－＋0</text>
<line x1="770.0" y1="593.6" x2="846.0" y2="620.0" stroke="#3a3d46" stroke-width="1" stroke-dasharray="2 3" opacity="0.6"/><line x1="846.0" y1="620.0" x2="770.0" y2="646.4" stroke="#3a3d46" stroke-width="1" stroke-dasharray="2 3" opacity="0.6"/><line x1="770.0" y1="646.4" x2="694.0" y2="620.0" stroke="#3a3d46" stroke-width="1" stroke-dasharray="2 3" opacity="0.6"/><line x1="694.0" y1="620.0" x2="770.0" y2="593.6" stroke="#3a3d46" stroke-width="1" stroke-dasharray="2 3" opacity="0.6"/><line x1="846.0" y1="620.0" x2="846.0" y2="700.0" stroke="#3a3d46" stroke-width="1" stroke-dasharray="2 3" opacity="0.6"/><line x1="770.0" y1="646.4" x2="770.0" y2="726.4" stroke="#3a3d46" stroke-width="1" stroke-dasharray="2 3" opacity="0.6"/><line x1="694.0" y1="620.0" x2="694.0" y2="700.0" stroke="#3a3d46" stroke-width="1" stroke-dasharray="2 3" opacity="0.6"/><line x1="770.0" y1="660.0" x2="792.8" y2="667.9" stroke="#cf6a3f" stroke-width="1.2" stroke-linecap="round" opacity="0.85"/><line x1="770.0" y1="660.0" x2="747.2" y2="667.9" stroke="#3f86a6" stroke-width="1.2" stroke-linecap="round" opacity="0.85"/><line x1="770.0" y1="660.0" x2="770.0" y2="636.0" stroke="#8869b4" stroke-width="1.2" stroke-linecap="round" opacity="0.85"/>
<text x="770.0" y="738.0" text-anchor="middle" font-family="ui-monospace,'SF Mono',Menlo,Consolas,monospace" font-size="10" fill="#9b9485">void · recurs</text>
<polygon points="1155.7,618.7 1155.7,702.7 1235.5,674.9 1235.5,590.9" fill="none" stroke="#cf6a3f" stroke-width="1.3" stroke-opacity="0.5"/><polygon points="1231.7,645.1 1231.7,729.1 1311.5,701.3 1311.5,617.3" fill="#cf6a3f" fill-opacity="0.92" stroke="#ffffff" stroke-width="1.4" stroke-linejoin="round"/>
<text x="1233.6" y="738.0" text-anchor="middle" font-family="ui-monospace,'SF Mono',Menlo,Consolas,monospace" font-size="10" fill="#7c766a">＋－0</text>
<polygon points="616.1,699.2 616.1,783.2 536.3,755.5 536.3,671.5" fill="none" stroke="#3f86a6" stroke-width="1.3" stroke-opacity="0.5"/><polygon points="540.1,725.6 540.1,809.6 460.3,781.9 460.3,697.9" fill="#3f86a6" fill-opacity="0.92" stroke="#ffffff" stroke-width="1.4" stroke-linejoin="round"/>
<text x="538.2" y="818.5" text-anchor="middle" font-family="ui-monospace,'SF Mono',Menlo,Consolas,monospace" font-size="10" fill="#7c766a">0＋0</text>
<polygon points="923.9,699.2 923.9,783.2 1003.7,755.5 1003.7,671.5" fill="none" stroke="#cf6a3f" stroke-width="1.3" stroke-opacity="0.5"/><polygon points="999.9,725.6 999.9,809.6 1079.7,781.9 1079.7,697.9" fill="#cf6a3f" fill-opacity="0.92" stroke="#ffffff" stroke-width="1.4" stroke-linejoin="round"/>
<text x="1001.8" y="818.5" text-anchor="middle" font-family="ui-monospace,'SF Mono',Menlo,Consolas,monospace" font-size="10" fill="#7c766a">＋00</text>
<polygon points="770.0,730.7 849.8,703.0 770.0,675.2 690.2,703.0" fill="none" stroke="#8869b4" stroke-width="1.3" stroke-opacity="0.5"/><polygon points="770.0,810.7 849.8,783.0 770.0,755.2 690.2,783.0" fill="#8869b4" fill-opacity="0.92" stroke="#ffffff" stroke-width="1.4" stroke-linejoin="round"/>
<text x="770.0" y="821.0" text-anchor="middle" font-family="ui-monospace,'SF Mono',Menlo,Consolas,monospace" font-size="10" fill="#7c766a">－－－</text>
<polygon points="692.1,779.7 692.1,863.7 771.9,836.0 771.9,752.0" fill="none" stroke="#cf6a3f" stroke-width="1.3" stroke-opacity="0.5"/><polygon points="768.1,806.1 768.1,890.1 847.9,862.4 847.9,778.4" fill="#cf6a3f" fill-opacity="0.92" stroke="#ffffff" stroke-width="1.4" stroke-linejoin="round"/>
<text x="770.0" y="899.0" text-anchor="middle" font-family="ui-monospace,'SF Mono',Menlo,Consolas,monospace" font-size="10" fill="#7c766a">＋＋0</text>
<polygon points="538.2,811.2 618.0,783.5 538.2,755.8 458.4,783.5" fill="none" stroke="#8869b4" stroke-width="1.3" stroke-opacity="0.5"/><polygon points="538.2,891.2 618.0,863.5 538.2,835.8 458.4,863.5" fill="#8869b4" fill-opacity="0.92" stroke="#ffffff" stroke-width="1.4" stroke-linejoin="round"/>
<text x="538.2" y="901.5" text-anchor="middle" font-family="ui-monospace,'SF Mono',Menlo,Consolas,monospace" font-size="10" fill="#7c766a">－0－</text>
<polygon points="1001.8,811.2 1081.6,783.5 1001.8,755.8 922.0,783.5" fill="none" stroke="#8869b4" stroke-width="1.3" stroke-opacity="0.5"/><polygon points="1001.8,891.2 1081.6,863.5 1001.8,835.8 922.0,863.5" fill="#8869b4" fill-opacity="0.92" stroke="#ffffff" stroke-width="1.4" stroke-linejoin="round"/>
<text x="1001.8" y="901.5" text-anchor="middle" font-family="ui-monospace,'SF Mono',Menlo,Consolas,monospace" font-size="10" fill="#7c766a">0－－</text>
<polygon points="306.4,891.7 386.2,864.0 306.4,836.3 226.6,864.0" fill="none" stroke="#8869b4" stroke-width="1.3" stroke-opacity="0.5"/><polygon points="306.4,971.7 386.2,944.0 306.4,916.3 226.6,944.0" fill="#8869b4" fill-opacity="0.92" stroke="#ffffff" stroke-width="1.4" stroke-linejoin="round"/>
<text x="306.4" y="982.0" text-anchor="middle" font-family="ui-monospace,'SF Mono',Menlo,Consolas,monospace" font-size="10" fill="#7c766a">－＋－</text>
<polygon points="770.0,891.7 849.8,864.0 770.0,836.3 690.2,864.0" fill="none" stroke="#8869b4" stroke-width="1.3" stroke-opacity="0.5"/><polygon points="770.0,971.7 849.8,944.0 770.0,916.3 690.2,944.0" fill="#8869b4" fill-opacity="0.92" stroke="#ffffff" stroke-width="1.4" stroke-linejoin="round"/>
<text x="770.0" y="982.0" text-anchor="middle" font-family="ui-monospace,'SF Mono',Menlo,Consolas,monospace" font-size="10" fill="#7c766a">00－</text>
<polygon points="1233.6,891.7 1313.4,864.0 1233.6,836.3 1153.8,864.0" fill="none" stroke="#8869b4" stroke-width="1.3" stroke-opacity="0.5"/><polygon points="1233.6,971.7 1313.4,944.0 1233.6,916.3 1153.8,944.0" fill="#8869b4" fill-opacity="0.92" stroke="#ffffff" stroke-width="1.4" stroke-linejoin="round"/>
<text x="1233.6" y="982.0" text-anchor="middle" font-family="ui-monospace,'SF Mono',Menlo,Consolas,monospace" font-size="10" fill="#7c766a">＋－－</text>
<polygon points="538.2,972.2 618.0,944.5 538.2,916.8 458.4,944.5" fill="none" stroke="#8869b4" stroke-width="1.3" stroke-opacity="0.5"/><polygon points="538.2,1052.2 618.0,1024.5 538.2,996.8 458.4,1024.5" fill="#8869b4" fill-opacity="0.92" stroke="#ffffff" stroke-width="1.4" stroke-linejoin="round"/>
<text x="538.2" y="1062.5" text-anchor="middle" font-family="ui-monospace,'SF Mono',Menlo,Consolas,monospace" font-size="10" fill="#7c766a">0＋－</text>
<polygon points="1001.8,972.2 1081.6,944.5 1001.8,916.8 922.0,944.5" fill="none" stroke="#8869b4" stroke-width="1.3" stroke-opacity="0.5"/><polygon points="1001.8,1052.2 1081.6,1024.5 1001.8,996.8 922.0,1024.5" fill="#8869b4" fill-opacity="0.92" stroke="#ffffff" stroke-width="1.4" stroke-linejoin="round"/>
<text x="1001.8" y="1062.5" text-anchor="middle" font-family="ui-monospace,'SF Mono',Menlo,Consolas,monospace" font-size="10" fill="#7c766a">＋0－</text>
<polygon points="770.0,1052.8 849.8,1025.0 770.0,997.3 690.2,1025.0" fill="none" stroke="#8869b4" stroke-width="1.3" stroke-opacity="0.5"/><polygon points="770.0,1132.8 849.8,1105.0 770.0,1077.3 690.2,1105.0" fill="#8869b4" fill-opacity="0.92" stroke="#ffffff" stroke-width="1.4" stroke-linejoin="round"/>
<text x="770.0" y="1143.0" text-anchor="middle" font-family="ui-monospace,'SF Mono',Menlo,Consolas,monospace" font-size="10" fill="#7c766a">＋＋－</text>
</svg>